<svg data-name="Layer 1" xmlns="http://www.w3.org/2000/svg" xmlns:xlink="http://www.w3.org/1999/xlink" width="815.19" height="739" viewBox="0 0 815.19 739"><defs><linearGradient id="a" x1="951.7" y1="575.37" x2="951.7" y2="414.37" gradientTransform="rotate(-6.25 792.887 594.053)" gradientUnits="userSpaceOnUse"><stop offset="0" stop-color="gray" stop-opacity=".25"/><stop offset=".54" stop-color="gray" stop-opacity=".12"/><stop offset="1" stop-color="gray" stop-opacity=".1"/></linearGradient><linearGradient id="b" x1="785.7" y1="711.37" x2="785.7" y2="333.37" xlink:href="#a"/><linearGradient id="c" x1="768.63" y1="421.56" x2="768.63" y2="260.56" gradientTransform="matrix(-.97 -.24 -.24 .97 1136.54 171.94)" xlink:href="#a"/><linearGradient id="d" x1="602.63" y1="557.56" x2="602.63" y2="179.56" gradientTransform="matrix(-.97 -.24 -.24 .97 1136.54 171.94)" xlink:href="#a"/></defs><circle cx="387" cy="389" r="269.5" fill="none" stroke="#3ad29f" stroke-miterlimit="10" stroke-width="5" stroke-dasharray="12" opacity=".4"/><circle cx="387" cy="389" r="205.5" fill="none" stroke="#3ad29f" stroke-miterlimit="10" stroke-width="5" stroke-dasharray="12" opacity=".4"/><path d="M742 424.5a1.5 1.5 0 000-3 1.5 1.5 0 000 3z" fill="#f5f5f5"/><path d="M886.18 403.06l2.19 20 36.21-4a34 34 0 0137.52 30.11l5.74 52.41a34 34 0 01-30.11 37.52l-36.21 4 2.19 20 56.21-6.16A34 34 0 00990 519.43L979.91 427a34 34 0 00-37.52-30.11z" transform="translate(-208 -81)" fill="url(#a)" opacity=".5"/><path d="M683.86 330l2 17.89 28.81-3.16a34 34 0 0137.52 30.11l4.35 39.73a34 34 0 01-30.11 37.52l-28.81 3.16 2 17.89 46.62-5.14a34 34 0 0030.11-37.52L768.08 355a34 34 0 00-37.52-30.11z" fill="#dbe8fc"/><path d="M884.8 702l-172.57 18.9a45.5 45.5 0 01-50.18-40.28l-36.2-330.52 263-28.81 36.2 330.52A45.5 45.5 0 01884.8 702z" transform="translate(-208 -81)" fill="url(#b)" opacity=".5"/><path d="M425.087 277.363L675.59 249.93l34.238 312.63a45.5 45.5 0 01-40.276 50.184L509.51 630.27a45.5 45.5 0 01-50.183-40.276l-34.239-312.63z" fill="#dbe8fc"/><path d="M444.89 292.795l214.218-23.46 30.32 276.844a45.5 45.5 0 01-40.276 50.183l-123.76 13.554a45.5 45.5 0 01-50.183-40.276l-30.32-276.845z" fill="#4229a7"/><path d="M489.69 316c-4.48.49-3.72 7.45.76 7s3.72-7.44-.76-7z" fill="#fff"/><path d="M518.39 394.39c-4.48.49-3.72 7.45.76 7s3.72-7.49-.76-7zm-10.14 54.43c-4.48.49-3.72 7.45.76 7s3.73-7.49-.76-7zm26.75 69.5c-4.48.49-3.72 7.45.76 7s3.71-7.49-.76-7zm64.25-1c-4.48.49-3.72 7.45.76 7s3.73-7.5-.76-7z" fill="#fafafa"/><path d="M592.28 315.88c-4.48.49-3.72 7.45.76 7s3.72-7.49-.76-7zm46.17-10.09c-4.48.49-3.72 7.45.76 7s3.73-7.49-.76-7z" fill="#fff"/><path d="M552.6 339.34c-5.76.63-4.79 9.58 1 8.95s4.76-9.58-1-8.95zm57.4 92.3c-5.76.63-4.79 9.58 1 8.95s4.75-9.59-1-8.95zm-87 142.82c-6.4.7-5.32 10.64 1.09 9.94s5.34-10.65-1.09-9.94zm-31.75-234.94c-6.4.7-5.32 10.64 1.09 9.94s5.32-10.64-1.09-9.94z" fill="#fafafa"/><path fill="#fafafa" d="M443.96 284.349l214.717-23.515 6.859 62.625-214.717 23.516z"/><path d="M554.79 561.42l-30.32-276.85-79.52 8.71 30.32 276.84a45.5 45.5 0 0050.18 40.28l79.55-8.71a45.5 45.5 0 01-50.21-40.27z" opacity=".05"/><path d="M609.46 555.43l-30.32-276.84 79.52-8.71L689 546.72a45.5 45.5 0 01-40.28 50.18l-79.52 8.71a45.5 45.5 0 0040.26-50.18z" fill="#fff" opacity=".1"/><path d="M693.48 248c-2.16-19.76-64-29.2-138.12-21.09s-132.44 30.72-130.28 50.49c1.32 12.05 24.84 20.26 59.81 23a22.49 22.49 0 0037 24.37c5.29 18.24 17.08 30.7 29.29 29.36 13.36-1.46 22.65-18.95 22.38-40.48 5.52 6.13 12.37 9.51 19.42 8.74 8.59-.94 15.57-7.84 19.45-17.79 4.66 3.66 10 5.52 15.36 4.92 6.93-.76 12.81-5.39 16.86-12.37 2.83 15.76 13.74 27.12 25.36 25.85 12.35-1.35 20.83-16.47 18.94-33.76-1-9.18-4.73-17.13-9.86-22.37 9.81-6.26 15.07-12.73 14.39-18.87z" opacity=".03"/><path d="M692.5 239c-2.16-19.76-64-29.2-138.12-21.09S421.94 248.63 424.1 268.4c1.32 12.05 24.84 20.26 59.81 23a22.49 22.49 0 0037 24.37c5.29 18.24 17.08 30.7 29.29 29.36 13.36-1.46 22.65-18.95 22.38-40.48 5.52 6.13 12.37 9.51 19.42 8.74 8.59-.94 15.57-7.84 19.45-17.79 4.66 3.66 10 5.52 15.36 4.92 6.93-.76 12.81-5.39 16.86-12.37 2.83 15.76 13.74 27.13 25.33 25.85 12.35-1.35 20.83-16.47 18.94-33.76-1-9.18-4.73-17.13-9.86-22.37 9.84-6.21 15.1-12.67 14.42-18.87z" fill="#fafafa"/><path d="M371.45 247.87l-4.92 19.52-35.32-8.9a34 34 0 00-41.3 24.67L277 334.28a34 34 0 0024.67 41.3l35.32 8.9-4.88 19.52-54.83-13.82a34 34 0 01-24.67-41.3l22.71-90.15a34 34 0 0141.3-24.73z" transform="translate(-208 -81)" fill="url(#c)" opacity=".5"/><path d="M156.74 173.94l-4.4 17.45-28.11-7.08A34 34 0 0082.94 209l-9.77 38.76A34 34 0 0097.85 289l28.15 7.12-4.4 17.45L76 302.1a34 34 0 01-24.67-41.3l18.56-73.67a34 34 0 0141.3-24.67z" fill="#dbe8fc"/><path d="M331.78 544.15l168.34 42.42a45.5 45.5 0 0055.24-33l81.24-322.42L380 166.49l-81.23 322.42a45.5 45.5 0 0033.01 55.24z" transform="translate(-208 -81)" fill="url(#d)" opacity=".5"/><path d="M288.201 495.306l-156.122-39.33a45.5 45.5 0 01-33.006-55.237l76.83-304.972 244.365 61.562-76.83 304.971a45.5 45.5 0 01-55.237 33.006z" fill="#dbe8fc"/><path d="M275.258 472.98L154.53 442.566a45.5 45.5 0 01-33.006-55.237l68.035-270.062 208.97 52.645-68.035 270.062a45.5 45.5 0 01-55.236 33.006z" fill="#4229a7"/><path d="M351 186.79c4.37 1.1 2.66 7.89-1.71 6.79s-2.68-7.89 1.71-6.79z" fill="#fff"/><path d="M311.8 260.45c4.37 1.1 2.66 7.89-1.71 6.79s-2.66-7.89 1.71-6.79zm2.57 55.3c4.37 1.1 2.66 7.89-1.71 6.79s-2.66-7.89 1.71-6.79zm-36.02 65.18c4.37 1.1 2.66 7.89-1.71 6.79s-2.64-7.9 1.71-6.79zm-63.52-9.82c4.37 1.1 2.66 7.89-1.71 6.79s-2.67-7.9 1.71-6.79z" fill="#fafafa"/><path d="M249.39 172.53c4.37 1.1 2.66 7.89-1.71 6.79s-2.68-7.89 1.71-6.79zM205 156.2c4.37 1.1 2.66 7.89-1.71 6.79s-2.63-7.89 1.71-6.79z" fill="#fff"/><path d="M285.47 201.22c5.62 1.41 3.43 10.14-2.2 8.73s-3.42-10.15 2.2-8.73zM216 284.77c5.62 1.41 3.43 10.14-2.2 8.73s-3.47-10.15 2.2-8.73zm66.49 153.4c6.24 1.57 3.81 11.27-2.44 9.7s-3.81-11.27 2.44-9.7zm63.72-228.35c6.24 1.57 3.81 11.27-2.44 9.7s-3.77-11.27 2.44-9.7z" fill="#fafafa"/><path fill="#fafafa" d="M385.223 222.757L175.767 169.99l15.39-61.091 209.456 52.767z"/><path d="M252.81 420.9l68-270.06 77.58 19.55-68 270.06a45.5 45.5 0 01-55.24 33l-77.58-19.55a45.5 45.5 0 0055.24-33z" opacity=".05"/><path d="M199.48 407.46l68-270.06-77.58-19.55-68 270.06a45.5 45.5 0 0033 55.24l77.58 19.55a45.5 45.5 0 01-33-55.24z" fill="#fff" opacity=".1"/><path d="M158.47 91.36c4.86-19.28 67.41-20.14 139.7-1.92s127 48.61 122.11 67.89c-3 11.76-27.39 16.66-62.4 14.57a22.49 22.49 0 01-40 19.06c-7.75 17.34-21.13 28.06-33 25.06-13-3.28-19.84-21.88-16.61-43.17-6.31 5.32-13.56 7.72-20.43 6-8.38-2.11-14.34-9.9-16.82-20.29-5.12 3-10.62 4.1-15.89 2.77-6.76-1.7-11.95-7.09-15-14.57-5 15.22-17.33 25-28.67 22.13-12-3-18.37-19.17-14.12-36 2.26-9 7-16.32 12.84-20.8-8.91-7.56-13.23-14.69-11.71-20.73z" opacity=".03"/><path d="M160.67 82.63c4.86-19.28 67.41-20.14 139.7-1.92s127 48.61 122.11 67.89c-3 11.76-27.39 16.66-62.4 14.57a22.49 22.49 0 01-40 19.06c-7.75 17.34-21.13 28.06-33 25.06-13-3.28-19.84-21.88-16.61-43.17-6.31 5.32-13.56 7.72-20.43 6-8.38-2.11-14.34-9.9-16.82-20.29-5.12 3-10.62 4.1-15.89 2.77-6.76-1.7-11.95-7.09-15-14.57-5 15.22-17.33 25-28.67 22.13-12-3-18.37-19.17-14.12-36 2.26-9 7-16.32 12.84-20.8-8.91-7.56-13.24-14.69-11.71-20.73z" fill="#fafafa"/><path d="M752.14 656.18a10.89 10.89 0 00-14.21 1.32 11.13 11.13 0 00.44 15.51l13.63 13.5a2.27 2.27 0 003.21 0l13.5-13.58a11.13 11.13 0 00.35-15.51 10.89 10.89 0 00-14.21-1.24 2.29 2.29 0 01-2.71 0zm-718-41a10.89 10.89 0 00-14.21 1.32 11.13 11.13 0 00.44 15.51L34 645.51a2.27 2.27 0 003.21 0l13.5-13.58a11.13 11.13 0 00.35-15.51 10.89 10.89 0 00-14.21-1.24 2.29 2.29 0 01-2.71 0zm36-545a10.89 10.89 0 00-14.21 1.32 11.13 11.13 0 00.44 15.51L70 100.51a2.27 2.27 0 003.21 0l13.5-13.58a11.13 11.13 0 00.35-15.51 10.89 10.89 0 00-14.21-1.24 2.29 2.29 0 01-2.71 0zm556-44a10.89 10.89 0 00-14.21 1.32 11.13 11.13 0 00.44 15.51L626 56.51a2.27 2.27 0 003.21 0l13.5-13.58a11.13 11.13 0 00.35-15.51 10.89 10.89 0 00-14.21-1.24 2.29 2.29 0 01-2.71 0z" fill="#4229a7" opacity=".5"/><g opacity=".5" fill="#3ad29f"><path d="M443 0h3v17h-3z"/><path d="M453 7v3h-17V7z"/></g><g opacity=".5" fill="#3ad29f"><path d="M7 218h3v17H7z"/><path d="M17 225v3H0v-3z"/></g><g opacity=".5" fill="#3ad29f"><path d="M568 722h3v17h-3z"/><path d="M578 729v3h-17v-3z"/></g><g opacity=".5" fill="#3ad29f"><path d="M17 497h3v17h-3z"/><path d="M27 504v3H10v-3z"/></g><g opacity=".5" fill="#3ad29f"><path d="M203 522h3v17h-3z"/><path d="M213 529v3h-17v-3z"/></g><path d="M147.09 670.89a3.67 3.67 0 01-2-4.44 1.77 1.77 0 00.08-.41 1.84 1.84 0 00-3.31-1.22 1.77 1.77 0 00-.2.36 3.67 3.67 0 01-4.44 2 1.77 1.77 0 00-.41-.08 1.84 1.84 0 00-1.22 3.31 1.77 1.77 0 00.36.2 3.67 3.67 0 012 4.44 1.77 1.77 0 00-.08.41 1.84 1.84 0 003.31 1.22 1.77 1.77 0 00.2-.36 3.67 3.67 0 014.44-2 1.77 1.77 0 00.41.08 1.84 1.84 0 001.22-3.31 1.77 1.77 0 00-.36-.2z" fill="#f55f44" opacity=".5"/><path d="M395.09 636.89a3.67 3.67 0 01-2-4.44 1.77 1.77 0 00.08-.41 1.84 1.84 0 00-3.31-1.22 1.77 1.77 0 00-.2.36 3.67 3.67 0 01-4.44 2 1.77 1.77 0 00-.41-.08 1.84 1.84 0 00-1.22 3.31 1.77 1.77 0 00.36.2 3.67 3.67 0 012 4.44 1.77 1.77 0 00-.08.41 1.84 1.84 0 003.31 1.22 1.77 1.77 0 00.2-.36 3.67 3.67 0 014.44-2 1.77 1.77 0 00.41.08 1.84 1.84 0 001.22-3.31 1.77 1.77 0 00-.36-.2z" fill="#3ad29f" opacity=".5"/><path d="M491.09 168.89a3.67 3.67 0 01-2-4.44 1.77 1.77 0 00.08-.41 1.84 1.84 0 00-3.31-1.22 1.77 1.77 0 00-.2.36 3.67 3.67 0 01-4.44 2 1.77 1.77 0 00-.41-.08 1.84 1.84 0 00-1.22 3.31 1.77 1.77 0 00.36.2 3.67 3.67 0 012 4.44 1.77 1.77 0 00-.08.41 1.84 1.84 0 003.31 1.22 1.77 1.77 0 00.2-.36 3.67 3.67 0 014.44-2 1.77 1.77 0 00.41.08 1.84 1.84 0 001.22-3.31 1.77 1.77 0 00-.36-.2zm257 6a3.67 3.67 0 01-2-4.44 1.77 1.77 0 00.08-.41 1.84 1.84 0 00-3.31-1.22 1.77 1.77 0 00-.2.36 3.67 3.67 0 01-4.44 2 1.77 1.77 0 00-.41-.08 1.84 1.84 0 00-1.22 3.31 1.77 1.77 0 00.36.2 3.67 3.67 0 012 4.44 1.77 1.77 0 00-.08.41 1.84 1.84 0 003.31 1.22 1.77 1.77 0 00.2-.36 3.67 3.67 0 014.44-2 1.77 1.77 0 00.41.08 1.84 1.84 0 001.22-3.31 1.77 1.77 0 00-.36-.2zm-370 275a3.67 3.67 0 01-2-4.44 1.77 1.77 0 00.08-.41 1.84 1.84 0 00-3.31-1.22 1.77 1.77 0 00-.2.36 3.67 3.67 0 01-4.44 2 1.77 1.77 0 00-.41-.08 1.84 1.84 0 00-1.22 3.31 1.77 1.77 0 00.36.2 3.67 3.67 0 012 4.44 1.77 1.77 0 00-.08.41 1.84 1.84 0 003.31 1.22 1.77 1.77 0 00.2-.36 3.67 3.67 0 014.44-2 1.77 1.77 0 00.41.08 1.84 1.84 0 001.22-3.31 1.77 1.77 0 00-.36-.2zm436-426a3.67 3.67 0 01-2-4.44 1.77 1.77 0 00.08-.41 1.84 1.84 0 00-3.31-1.22 1.77 1.77 0 00-.2.36 3.67 3.67 0 01-4.44 2 1.77 1.77 0 00-.41-.08 1.84 1.84 0 00-1.22 3.31 1.77 1.77 0 00.36.2 3.67 3.67 0 012 4.44 1.77 1.77 0 00-.08.41 1.84 1.84 0 003.31 1.22 1.77 1.77 0 00.2-.36 3.67 3.67 0 014.44-2 1.77 1.77 0 00.41.08 1.84 1.84 0 001.22-3.31 1.77 1.77 0 00-.36-.2z" fill="#f55f44" opacity=".5"/></svg>